<?xml version="1.0" encoding="utf-8"?>
<!-- Generator: Adobe Illustrator 23.1.0, SVG Export Plug-In . SVG Version: 6.00 Build 0)  -->
<svg version="1.2" baseProfile="tiny" id="Layer_1" xmlns="http://www.w3.org/2000/svg" xmlns:xlink="http://www.w3.org/1999/xlink"
	 x="0px" y="0px" viewBox="0 0 102 90" xml:space="preserve">
<rect fill="#FEFEFE" width="102" height="90"/>
<path fill="#999999" d="M101,1v43H1V1H101 M102,0H0v45h102V0L102,0z"/>
<rect x="10.5" y="9.8" fill="#D6D6D6" width="18" height="12"/>
<g>
	<line fill="none" stroke="#EA0F0F" stroke-width="0.75" stroke-miterlimit="10" x1="7.7" y1="15.8" x2="2.8" y2="15.8"/>
	<g>
		<polygon fill="#EA0F0F" points="7.1,13.8 10.5,15.8 7.1,17.7 		"/>
	</g>
	<g>
		<polygon fill="#EA0F0F" points="3.4,13.8 0,15.8 3.4,17.7 		"/>
	</g>
</g>
<polygon fill="#4C4C4C" points="60,29 51,23 42,29 42,0.5 60,0.5 "/>
<path fill="#999999" d="M101,46v43H1V46H101 M102,45H0v45h102V45L102,45z"/>
<rect x="10.5" y="52.5" fill="#D6D6D6" width="18" height="12"/>
<g>
	<line fill="none" stroke="#EA0F0F" stroke-width="0.75" stroke-miterlimit="10" x1="19.5" y1="67.3" x2="19.5" y2="87.2"/>
	<g>
		<polygon fill="#EA0F0F" points="17.6,67.9 19.5,64.5 21.4,67.9 		"/>
	</g>
	<g>
		<polygon fill="#EA0F0F" points="17.6,86.6 19.5,90 21.4,86.6 		"/>
	</g>
</g>
<polygon fill="#4C4C4C" points="60,74 51,68 42,74 42,45.5 60,45.5 "/>
</svg>
